# xmcd
#
# Track frame offsets: 
#        182
#        17435
#        30477
#        47870
#        64240
#        81240
#        94567
#        108167
#        127985
#        137035
#        156390
#        170715
#
# Disc length: 2322 seconds
#
# Revision: 0
# Processed by: cddbd v1.5.2PL0 Copyright (c) Steve Scherf et al.
# Submitted via: ExactAudioCopyFreeDBPlugin 1.0
#
DISCID=9709100c
DTITLE=Susy Nealy and Gian De Boni - In Between
DYEAR=1994
DGENRE=Pop
TTITLE0=Good-bye loovely town
TTITLE1=Love I could not live
TTITLE2=Serenade
TTITLE3=Sketches of winter
TTITLE4=The mountains don't talk
TTITLE5=Sweet highway
TTITLE6=Big sky deep sea
TTITLE7=Throughout these days
TTITLE8=Joke song
TTITLE9=From here to New York
TTITLE10=I guess I know you
TTITLE11=Amazing grace
EXTD=
EXTT0=
EXTT1=
EXTT2=
EXTT3=
EXTT4=
EXTT5=
EXTT6=
EXTT7=
EXTT8=
EXTT9=
EXTT10=
EXTT11=
PLAYORDER=
